<mxfile host="app.diagrams.net" agent="Mozilla/5.0 (Windows NT 10.0; Win64; x64) AppleWebKit/537.36 (KHTML, like Gecko) Chrome/128.0.0.0 Safari/537.36 Edg/128.0.0.0" version="24.7.12" pages="2">
  <diagram name="Page-1" id="nZPRc_wx3SArP6eaqZQC">
    <mxGraphModel dx="1426" dy="747" grid="0" gridSize="10" guides="1" tooltips="1" connect="1" arrows="1" fold="1" page="0" pageScale="1" pageWidth="827" pageHeight="1169" math="0" shadow="0">
      <root>
        <mxCell id="0" />
        <mxCell id="1" parent="0" />
        <mxCell id="w8XaqfnSHReKEpxK6DeZ-1" value="Rubik" style="swimlane;whiteSpace=wrap;html=1;fillColor=#dae8fc;strokeColor=#6c8ebf;connectable=1;container=0;" vertex="1" parent="1">
          <mxGeometry x="10" y="60" width="160" height="740" as="geometry" />
        </mxCell>
        <mxCell id="Jjtg4Tj6DGNZkt8a8X1Q-21" value="Scan&lt;br&gt;FullCheckForTextFormat" style="rounded=1;whiteSpace=wrap;html=1;" vertex="1" parent="w8XaqfnSHReKEpxK6DeZ-1">
          <mxGeometry x="6" y="363" width="140" height="60" as="geometry" />
        </mxCell>
        <mxCell id="w8XaqfnSHReKEpxK6DeZ-2" value="Service Bus" style="swimlane;whiteSpace=wrap;html=1;fillColor=#dae8fc;strokeColor=#6c8ebf;container=0;" vertex="1" parent="1">
          <mxGeometry x="170" y="60" width="140" height="740" as="geometry" />
        </mxCell>
        <mxCell id="Jjtg4Tj6DGNZkt8a8X1Q-1" value="QualityCheckQueue" style="rounded=1;whiteSpace=wrap;html=1;" vertex="1" parent="w8XaqfnSHReKEpxK6DeZ-2">
          <mxGeometry x="11" y="41" width="120" height="60" as="geometry" />
        </mxCell>
        <mxCell id="Jjtg4Tj6DGNZkt8a8X1Q-4" value="ScanResult" style="rounded=1;whiteSpace=wrap;html=1;" vertex="1" parent="w8XaqfnSHReKEpxK6DeZ-2">
          <mxGeometry x="11" y="550" width="120" height="60" as="geometry" />
        </mxCell>
        <mxCell id="w8XaqfnSHReKEpxK6DeZ-3" value="AlgorithmCenter" style="swimlane;whiteSpace=wrap;html=1;startSize=23;fillColor=#dae8fc;strokeColor=#6c8ebf;container=0;" vertex="1" parent="1">
          <mxGeometry x="310" y="60" width="200" height="740" as="geometry" />
        </mxCell>
        <mxCell id="Jjtg4Tj6DGNZkt8a8X1Q-36" style="edgeStyle=orthogonalEdgeStyle;rounded=0;orthogonalLoop=1;jettySize=auto;html=1;exitX=0.5;exitY=1;exitDx=0;exitDy=0;entryX=0.5;entryY=0;entryDx=0;entryDy=0;" edge="1" parent="w8XaqfnSHReKEpxK6DeZ-3" source="Jjtg4Tj6DGNZkt8a8X1Q-5" target="Jjtg4Tj6DGNZkt8a8X1Q-11">
          <mxGeometry relative="1" as="geometry" />
        </mxCell>
        <mxCell id="Jjtg4Tj6DGNZkt8a8X1Q-5" value="Get Data By Queue" style="rounded=1;whiteSpace=wrap;html=1;" vertex="1" parent="w8XaqfnSHReKEpxK6DeZ-3">
          <mxGeometry x="74" y="41" width="120" height="60" as="geometry" />
        </mxCell>
        <mxCell id="Jjtg4Tj6DGNZkt8a8X1Q-11" value="DataMart" style="rhombus;whiteSpace=wrap;html=1;" vertex="1" parent="w8XaqfnSHReKEpxK6DeZ-3">
          <mxGeometry x="74" y="140" width="120" height="70" as="geometry" />
        </mxCell>
        <mxCell id="Jjtg4Tj6DGNZkt8a8X1Q-19" style="edgeStyle=orthogonalEdgeStyle;rounded=0;orthogonalLoop=1;jettySize=auto;html=1;exitX=0.5;exitY=1;exitDx=0;exitDy=0;" edge="1" parent="w8XaqfnSHReKEpxK6DeZ-3" source="Jjtg4Tj6DGNZkt8a8X1Q-13" target="Jjtg4Tj6DGNZkt8a8X1Q-17">
          <mxGeometry relative="1" as="geometry" />
        </mxCell>
        <mxCell id="Jjtg4Tj6DGNZkt8a8X1Q-13" value="Get Content By Storage" style="rounded=1;whiteSpace=wrap;html=1;" vertex="1" parent="w8XaqfnSHReKEpxK6DeZ-3">
          <mxGeometry x="5" y="250" width="120" height="60" as="geometry" />
        </mxCell>
        <mxCell id="Jjtg4Tj6DGNZkt8a8X1Q-14" style="edgeStyle=orthogonalEdgeStyle;rounded=0;orthogonalLoop=1;jettySize=auto;html=1;exitX=0.5;exitY=1;exitDx=0;exitDy=0;entryX=0.5;entryY=0;entryDx=0;entryDy=0;" edge="1" parent="w8XaqfnSHReKEpxK6DeZ-3" source="Jjtg4Tj6DGNZkt8a8X1Q-11" target="Jjtg4Tj6DGNZkt8a8X1Q-13">
          <mxGeometry relative="1" as="geometry" />
        </mxCell>
        <mxCell id="Jjtg4Tj6DGNZkt8a8X1Q-37" value="CCIS Big5" style="edgeLabel;html=1;align=center;verticalAlign=middle;resizable=0;points=[];" vertex="1" connectable="0" parent="Jjtg4Tj6DGNZkt8a8X1Q-14">
          <mxGeometry x="0.4631" relative="1" as="geometry">
            <mxPoint x="10" y="-10" as="offset" />
          </mxGeometry>
        </mxCell>
        <mxCell id="Jjtg4Tj6DGNZkt8a8X1Q-34" style="edgeStyle=orthogonalEdgeStyle;rounded=0;orthogonalLoop=1;jettySize=auto;html=1;exitX=0.5;exitY=1;exitDx=0;exitDy=0;entryX=0.5;entryY=0;entryDx=0;entryDy=0;" edge="1" parent="w8XaqfnSHReKEpxK6DeZ-3" source="Jjtg4Tj6DGNZkt8a8X1Q-17" target="Jjtg4Tj6DGNZkt8a8X1Q-25">
          <mxGeometry relative="1" as="geometry" />
        </mxCell>
        <mxCell id="Jjtg4Tj6DGNZkt8a8X1Q-17" value="Submit Scan Request" style="rounded=1;whiteSpace=wrap;html=1;" vertex="1" parent="w8XaqfnSHReKEpxK6DeZ-3">
          <mxGeometry x="35" y="363" width="120" height="60" as="geometry" />
        </mxCell>
        <mxCell id="Jjtg4Tj6DGNZkt8a8X1Q-30" style="edgeStyle=orthogonalEdgeStyle;rounded=0;orthogonalLoop=1;jettySize=auto;html=1;exitX=0.5;exitY=1;exitDx=0;exitDy=0;" edge="1" parent="w8XaqfnSHReKEpxK6DeZ-3" source="Jjtg4Tj6DGNZkt8a8X1Q-24" target="Jjtg4Tj6DGNZkt8a8X1Q-29">
          <mxGeometry relative="1" as="geometry" />
        </mxCell>
        <mxCell id="Jjtg4Tj6DGNZkt8a8X1Q-24" value="Process Scan Result" style="rounded=1;whiteSpace=wrap;html=1;" vertex="1" parent="w8XaqfnSHReKEpxK6DeZ-3">
          <mxGeometry x="35" y="550" width="120" height="60" as="geometry" />
        </mxCell>
        <mxCell id="Jjtg4Tj6DGNZkt8a8X1Q-29" value="Store Scan Result" style="shape=cylinder3;whiteSpace=wrap;html=1;boundedLbl=1;backgroundOutline=1;size=15;" vertex="1" parent="w8XaqfnSHReKEpxK6DeZ-3">
          <mxGeometry x="65" y="650" width="60" height="80" as="geometry" />
        </mxCell>
        <mxCell id="Jjtg4Tj6DGNZkt8a8X1Q-25" value="&lt;b&gt;Redis&lt;/b&gt;&lt;br&gt;Store Scan Article Info" style="rounded=1;whiteSpace=wrap;html=1;" vertex="1" parent="w8XaqfnSHReKEpxK6DeZ-3">
          <mxGeometry x="35" y="450" width="120" height="60" as="geometry" />
        </mxCell>
        <mxCell id="Jjtg4Tj6DGNZkt8a8X1Q-28" style="edgeStyle=orthogonalEdgeStyle;rounded=0;orthogonalLoop=1;jettySize=auto;html=1;exitX=0.5;exitY=1;exitDx=0;exitDy=0;" edge="1" parent="w8XaqfnSHReKEpxK6DeZ-3" source="Jjtg4Tj6DGNZkt8a8X1Q-25" target="Jjtg4Tj6DGNZkt8a8X1Q-24">
          <mxGeometry relative="1" as="geometry" />
        </mxCell>
        <mxCell id="Jjtg4Tj6DGNZkt8a8X1Q-6" style="edgeStyle=orthogonalEdgeStyle;rounded=0;orthogonalLoop=1;jettySize=auto;html=1;exitX=1;exitY=0.5;exitDx=0;exitDy=0;entryX=0;entryY=0.5;entryDx=0;entryDy=0;" edge="1" parent="1" source="Jjtg4Tj6DGNZkt8a8X1Q-1" target="Jjtg4Tj6DGNZkt8a8X1Q-5">
          <mxGeometry relative="1" as="geometry" />
        </mxCell>
        <mxCell id="w8XaqfnSHReKEpxK6DeZ-7" value="&lt;div style=&quot;text-align: start;&quot;&gt;&lt;span style=&quot;letter-spacing: -1.12px; text-wrap: nowrap;&quot;&gt;KMContentAPI&lt;/span&gt;&lt;br&gt;&lt;/div&gt;" style="swimlane;whiteSpace=wrap;html=1;startSize=23;fillColor=#dae8fc;strokeColor=#6c8ebf;container=0;" vertex="1" parent="1">
          <mxGeometry x="510" y="60" width="150" height="740" as="geometry" />
        </mxCell>
        <mxCell id="Jjtg4Tj6DGNZkt8a8X1Q-15" value="Get Content By API" style="rounded=1;whiteSpace=wrap;html=1;" vertex="1" parent="w8XaqfnSHReKEpxK6DeZ-7">
          <mxGeometry x="10" y="250" width="120" height="60" as="geometry" />
        </mxCell>
        <mxCell id="Jjtg4Tj6DGNZkt8a8X1Q-16" style="edgeStyle=orthogonalEdgeStyle;rounded=0;orthogonalLoop=1;jettySize=auto;html=1;exitX=0.5;exitY=1;exitDx=0;exitDy=0;" edge="1" parent="1" source="Jjtg4Tj6DGNZkt8a8X1Q-11" target="Jjtg4Tj6DGNZkt8a8X1Q-15">
          <mxGeometry relative="1" as="geometry" />
        </mxCell>
        <mxCell id="Jjtg4Tj6DGNZkt8a8X1Q-38" value="CCIS PPE/PROD Big5" style="edgeLabel;html=1;align=center;verticalAlign=middle;resizable=0;points=[];" vertex="1" connectable="0" parent="Jjtg4Tj6DGNZkt8a8X1Q-16">
          <mxGeometry x="-0.005" y="1" relative="1" as="geometry">
            <mxPoint y="-9" as="offset" />
          </mxGeometry>
        </mxCell>
        <mxCell id="Jjtg4Tj6DGNZkt8a8X1Q-20" style="edgeStyle=orthogonalEdgeStyle;rounded=0;orthogonalLoop=1;jettySize=auto;html=1;exitX=0.5;exitY=1;exitDx=0;exitDy=0;entryX=0.5;entryY=0;entryDx=0;entryDy=0;" edge="1" parent="1" source="Jjtg4Tj6DGNZkt8a8X1Q-15" target="Jjtg4Tj6DGNZkt8a8X1Q-17">
          <mxGeometry relative="1" as="geometry" />
        </mxCell>
        <mxCell id="Jjtg4Tj6DGNZkt8a8X1Q-22" style="edgeStyle=orthogonalEdgeStyle;rounded=0;orthogonalLoop=1;jettySize=auto;html=1;exitX=0;exitY=0.5;exitDx=0;exitDy=0;entryX=1;entryY=0.5;entryDx=0;entryDy=0;" edge="1" parent="1" source="Jjtg4Tj6DGNZkt8a8X1Q-17" target="Jjtg4Tj6DGNZkt8a8X1Q-21">
          <mxGeometry relative="1" as="geometry" />
        </mxCell>
        <mxCell id="Jjtg4Tj6DGNZkt8a8X1Q-23" style="edgeStyle=orthogonalEdgeStyle;rounded=0;orthogonalLoop=1;jettySize=auto;html=1;exitX=0.5;exitY=1;exitDx=0;exitDy=0;entryX=0;entryY=0.5;entryDx=0;entryDy=0;" edge="1" parent="1" source="Jjtg4Tj6DGNZkt8a8X1Q-21" target="Jjtg4Tj6DGNZkt8a8X1Q-4">
          <mxGeometry relative="1" as="geometry" />
        </mxCell>
        <mxCell id="Jjtg4Tj6DGNZkt8a8X1Q-27" style="edgeStyle=orthogonalEdgeStyle;rounded=0;orthogonalLoop=1;jettySize=auto;html=1;exitX=1;exitY=0.5;exitDx=0;exitDy=0;entryX=0;entryY=0.5;entryDx=0;entryDy=0;" edge="1" parent="1" source="Jjtg4Tj6DGNZkt8a8X1Q-4" target="Jjtg4Tj6DGNZkt8a8X1Q-24">
          <mxGeometry relative="1" as="geometry" />
        </mxCell>
        <mxCell id="Jjtg4Tj6DGNZkt8a8X1Q-31" value="KMDocAgents" style="swimlane;whiteSpace=wrap;html=1;fillColor=#dae8fc;strokeColor=#6c8ebf;container=0;" vertex="1" parent="1">
          <mxGeometry x="660" y="60" width="140" height="740" as="geometry" />
        </mxCell>
        <mxCell id="Jjtg4Tj6DGNZkt8a8X1Q-32" value="Store Scan Result to Cosmos" style="rounded=1;whiteSpace=wrap;html=1;" vertex="1" parent="Jjtg4Tj6DGNZkt8a8X1Q-31">
          <mxGeometry x="14" y="550" width="120" height="60" as="geometry" />
        </mxCell>
        <mxCell id="Jjtg4Tj6DGNZkt8a8X1Q-33" style="edgeStyle=orthogonalEdgeStyle;rounded=0;orthogonalLoop=1;jettySize=auto;html=1;exitX=1;exitY=0.5;exitDx=0;exitDy=0;" edge="1" parent="1" source="Jjtg4Tj6DGNZkt8a8X1Q-24" target="Jjtg4Tj6DGNZkt8a8X1Q-32">
          <mxGeometry relative="1" as="geometry" />
        </mxCell>
      </root>
    </mxGraphModel>
  </diagram>
  <diagram id="9x1ArE39Op9YJd5b_G_t" name="Page-2">
    <mxGraphModel dx="1426" dy="747" grid="1" gridSize="10" guides="1" tooltips="1" connect="1" arrows="1" fold="1" page="1" pageScale="1" pageWidth="827" pageHeight="1169" math="0" shadow="0">
      <root>
        <mxCell id="0" />
        <mxCell id="1" parent="0" />
        <mxCell id="jsRABJbGXxrS_mvRtbSF-1" value="" style="rounded=1;whiteSpace=wrap;html=1;" vertex="1" parent="1">
          <mxGeometry x="150" y="40" width="120" height="60" as="geometry" />
        </mxCell>
      </root>
    </mxGraphModel>
  </diagram>
</mxfile>
